<?xml version="1.0" standalone="no"?>
<!DOCTYPE svg PUBLIC "-//W3C//DTD SVG 20010904//EN"
 "http://www.w3.org/TR/2001/REC-SVG-20010904/DTD/svg10.dtd">
<svg version="1.0" xmlns="http://www.w3.org/2000/svg"
 width="256.000000pt" height="256.000000pt" viewBox="0 0 256.000000 256.000000"
 preserveAspectRatio="xMidYMid meet">
<metadata>
Created by potrace 1.11, written by Peter Selinger 2001-2013
</metadata>
<g transform="translate(0.000000,256.000000) scale(0.100000,-0.100000)"
fill="#000000" stroke="none">
<path d="M378 2555 c-2 -2 -25 -6 -53 -9 -157 -21 -282 -143 -312 -304 -9 -50
-10 -1826 -1 -1902 5 -41 20 -98 33 -127 45 -99 155 -182 266 -201 55 -9 1867
-9 1929 0 122 18 226 92 276 197 42 89 43 103 41 1086 -2 517 -6 954 -10 970
-13 48 -46 116 -74 153 -32 42 -131 107 -175 116 -18 3 -44 9 -58 13 -23 6
-1856 14 -1862 8z"/>
</g>
</svg>
